<svg xmlns="http://www.w3.org/2000/svg" viewBox="0 0 48 48" id="Frankenstein-Monster--Streamline-Nasty" height="48" width="48">
  <desc>
    Frankenstein Monster Streamline Icon: https://streamlinehq.com
  </desc>
  <g>
    <path d="M47.2 10.4h-4.800000000000001a0.752 0.752 0 0 0 -0.8 0.8v0.8h-1.6v-1.6A10.4 10.4 0 0 0 29.6 0H18.400000000000002a10.4 10.4 0 0 0 -10.4 10.4v1.6H6.4v-0.8a0.752 0.752 0 0 0 -0.8 -0.8H0.8a0.752 0.752 0 0 0 -0.8 0.8v8a0.752 0.752 0 0 0 0.8 0.8h4.800000000000001a0.752 0.752 0 0 0 0.8 -0.8v-0.8h1.6v19.200000000000003a10.4 10.4 0 0 0 10.4 10.4h11.200000000000001a10.4 10.4 0 0 0 10.4 -10.4V18.400000000000002h1.6v0.8a0.752 0.752 0 0 0 0.8 0.8h4.800000000000001a0.752 0.752 0 0 0 0.8 -0.8V11.200000000000001a0.752 0.752 0 0 0 -0.8 -0.8ZM1.6 12h3.2v6.4H1.6Zm36.800000000000004 -1.6v3.9200000000000004a9.4 9.4 0 0 1 -3.04 -0.7200000000000001l0.48 -0.8a0.8 0.8 0 0 0 -1.4400000000000002 -0.8l-0.48 0.8800000000000001a13.463999999999999 13.463999999999999 0 0 1 -2.32 -1.92l0.5599999999999999 -0.48a0.8 0.8 0 1 0 -0.96 -1.2800000000000002l-0.5599999999999999 0.48a12.504000000000001 12.504000000000001 0 0 1 -1.6800000000000002 -3.44l1.36 -0.8a0.8880000000000001 0.8880000000000001 0 0 0 0.32000000000000006 -1.1199999999999999 0.8880000000000001 0.8880000000000001 0 0 0 -1.1199999999999999 -0.32000000000000006l-0.96 0.5599999999999999A11.432 11.432 0 0 1 28 1.6h1.6a8.8 8.8 0 0 1 8.8 8.8ZM18.400000000000002 1.6h1.6v4.800000000000001h-0.8a0.752 0.752 0 0 0 -0.8 0.8 0.752 0.752 0 0 0 0.8 0.8h0.8v2.4000000000000004h-0.8a0.8 0.8 0 0 0 0 1.6h0.8v2.4000000000000004h-0.8a0.8 0.8 0 0 0 0 1.6h0.48a14.272 14.272 0 0 1 -1.92 3.6A4.36 4.36 0 0 0 16 19.200000000000003a4 4 0 0 0 -4 4 1.7600000000000002 1.7600000000000002 0 0 0 0.08000000000000002 0.6400000000000001 11.736 11.736 0 0 1 -2.4800000000000004 0.16000000000000003V10.4A8.8 8.8 0 0 1 18.400000000000002 1.6Zm0 21.6a2.4000000000000004 2.4000000000000004 0 1 1 -2.4000000000000004 -2.4000000000000004 2.3600000000000003 2.3600000000000003 0 0 1 2.4000000000000004 2.4000000000000004ZM6.4 13.600000000000001h1.6v3.2H6.4Zm23.200000000000003 32.800000000000004H18.400000000000002a8.8 8.8 0 0 1 -8.8 -8.8V25.6a18.024 18.024 0 0 0 3.04 -0.24A4 4 0 0 0 20 23.200000000000003a4 4 0 0 0 -0.96 -2.5600000000000005 14.847999999999999 14.847999999999999 0 0 0 2.32 -4.64H23.200000000000003a0.8 0.8 0 0 0 0 -1.6h-1.6v-2.4000000000000004h1.6a0.8 0.8 0 0 0 0 -1.6h-1.6v-2.4000000000000004h1.6a0.752 0.752 0 0 0 0.8 -0.8 0.752 0.752 0 0 0 -0.8 -0.8h-1.6V1.6h4.800000000000001a20.12 20.12 0 0 0 0.5599999999999999 3.9200000000000004l-1.1199999999999999 0.6400000000000001a0.8640000000000001 0.8640000000000001 0 0 0 -0.24 1.1199999999999999 0.8400000000000001 0.8400000000000001 0 0 0 0.7200000000000001 0.4 0.7200000000000001 0.7200000000000001 0 0 0 0.4 -0.08000000000000002l0.8 -0.48a15.200000000000001 15.200000000000001 0 0 0 1.8399999999999999 3.6L28 11.76a0.8640000000000001 0.8640000000000001 0 0 0 -0.16000000000000003 1.1199999999999999 0.984 0.984 0 0 0 0.6400000000000001 0.32000000000000006 1.136 1.136 0 0 0 0.48 -0.16000000000000003l1.36 -1.1199999999999999a13.104 13.104 0 0 0 2.8000000000000003 2.32l-0.7200000000000001 1.2800000000000002a0.8 0.8 0 0 0 0.32000000000000006 1.1199999999999999 0.7200000000000001 0.7200000000000001 0 0 0 0.4 0.08000000000000002 0.952 0.952 0 0 0 0.7200000000000001 -0.4l0.7200000000000001 -1.2800000000000002A10.448 10.448 0 0 0 38.400000000000006 16v21.6a8.8 8.8 0 0 1 -8.8 8.8Zm10.4 -32.800000000000004h1.6v3.2h-1.6Zm3.2 -1.6h3.2v6.4h-3.2Z" fill="#f5bb30" fill-rule="evenodd" stroke-width="0.8"></path>
    <path d="M34.4 30.400000000000002H13.600000000000001a0.752 0.752 0 0 0 -0.8 0.8v4c0 5.2 3.28 8.8 8 8.8h6.4c4.720000000000001 0 8 -3.6 8 -8.8v-4a0.752 0.752 0 0 0 -0.8 -0.8Zm-7.2 1.6h3.2v1.6h-3.2Zm-12.8 0h1.6v1.6h-1.6Zm6.4 10.4c0 -0.8800000000000001 0.08000000000000002 -1.92 0.5599999999999999 -2.16s1.2000000000000002 -0.08000000000000002 2.32 0.48a1.1119999999999999 1.1119999999999999 0 0 0 0.7200000000000001 0c1.1199999999999999 -0.5599999999999999 1.92 -0.7200000000000001 2.32 -0.48s0.5599999999999999 1.2800000000000002 0.5599999999999999 2.16H20.8Zm12.8 -7.2c0 3.6 -1.92 6.24 -4.800000000000001 6.96 -0.08000000000000002 -1.2800000000000002 -0.24 -2.64 -1.2800000000000002 -3.3600000000000003 -0.8800000000000001 -0.5599999999999999 -2 -0.48 -3.5200000000000005 0.24 -1.52 -0.7200000000000001 -2.64 -0.8 -3.5200000000000005 -0.24 -1.04 0.6400000000000001 -1.2800000000000002 2 -1.2800000000000002 3.3600000000000003 -2.8800000000000003 -0.7200000000000001 -4.800000000000001 -3.3600000000000003 -4.800000000000001 -6.96h2.4000000000000004a0.752 0.752 0 0 0 0.8 -0.8v-2.4000000000000004h8v2.4000000000000004a0.752 0.752 0 0 0 0.8 0.8h4.800000000000001a0.752 0.752 0 0 0 0.8 -0.8v-2.4000000000000004h1.6v3.2Z" fill="#f5bb30" fill-rule="evenodd" stroke-width="0.8"></path>
    <path d="M32 19.200000000000003a4 4 0 1 0 4 4 4 4 0 0 0 -4 -4Zm0 6.4a2.4000000000000004 2.4000000000000004 0 1 1 2.4000000000000004 -2.4000000000000004 2.3600000000000003 2.3600000000000003 0 0 1 -2.4000000000000004 2.4000000000000004Z" fill="#f5bb30" fill-rule="evenodd" stroke-width="0.8"></path>
  </g>
</svg>